
<svg viewBox="0 0 200 200" xmlns="http://www.w3.org/2000/svg">
  <path fill="#A7F0BA" d="M31.6,-53.1C40.5,-49.7,46.8,-40.2,51.3,-30.3C55.8,-20.5,58.5,-10.2,58.1,-0.2C57.7,9.8,54.2,19.5,51.8,33C49.4,46.4,48,63.6,39.5,69.8C31.1,76,15.5,71.3,2.8,66.5C-10,61.7,-19.9,56.8,-31.6,52.4C-43.3,48.1,-56.8,44.3,-63.3,35.7C-69.9,27,-69.6,13.5,-70.5,-0.5C-71.4,-14.6,-73.6,-29.1,-69.8,-42.7C-66.1,-56.2,-56.5,-68.7,-43.8,-69.9C-31.2,-71.2,-15.6,-61.2,-2.1,-57.6C11.4,-53.9,22.8,-56.5,31.6,-53.1Z" transform="translate(100 100)" />
</svg>
